<?xml version="1.0" encoding="utf-8" ?>
<svg baseProfile="tiny" height="31748.0315" version="1.2" width="31748.0315" xmlns="http://www.w3.org/2000/svg" xmlns:ev="http://www.w3.org/2001/xml-events" xmlns:xlink="http://www.w3.org/1999/xlink"><defs /><line stroke="rgb(10%,10%,16%)" x1="25602.4792" x2="6719.7036" y1="16032.3278" y2="31748.0315" /><line stroke="rgb(10%,10%,16%)" x1="20539.4203" x2="0" y1="12432.8239" y2="0" /><line stroke="rgb(10%,10%,16%)" x1="29252.9012" x2="17815.9393" y1="29940.877" y2="31748.0315" /><line stroke="rgb(10%,10%,16%)" x1="23028.9668" x2="17131.6759" y1="24747.0612" y2="31748.0315" /><line stroke="rgb(10%,10%,16%)" x1="19913.1169" x2="31748.0315" y1="1895.0518" y2="0" /><line stroke="rgb(10%,10%,16%)" x1="9246.4101" x2="31748.0315" y1="30391.9904" y2="31748.0315" /><line stroke="rgb(10%,10%,16%)" x1="5957.1965" x2="0" y1="25135.2214" y2="31748.0315" /><line stroke="rgb(10%,10%,16%)" x1="21675.7621" x2="0" y1="7998.7859" y2="0" /><line stroke="rgb(10%,10%,16%)" x1="25644.5156" x2="6694.0663" y1="3444.298" y2="0" /><line stroke="rgb(10%,10%,16%)" x1="407.51" x2="0" y1="30446.8736" y2="13583.6275" /><line stroke="rgb(10%,10%,16%)" x1="8817.1841" x2="0" y1="4710.9643" y2="6023.9133" /><line stroke="rgb(10%,10%,16%)" x1="8222.3418" x2="31748.0315" y1="9723.9928" y2="4901.3147" /><line stroke="rgb(10%,10%,16%)" x1="18621.4326" x2="31748.0315" y1="10128.4757" y2="0" /><line stroke="rgb(10%,10%,16%)" x1="19031.3573" x2="14232.5327" y1="30496.7382" y2="0" /><line stroke="rgb(10%,10%,16%)" x1="24221.0846" x2="2677.0947" y1="2563.394" y2="25882.7852" /><line stroke="rgb(10%,10%,16%)" x1="14076.9795" x2="0" y1="29084.5926" y2="3466.4796" /><line stroke="rgb(10%,10%,16%)" x1="421.9582" x2="14623.8686" y1="927.9105" y2="0" /><line stroke="rgb(10%,10%,16%)" x1="2631.343" x2="0" y1="6580.9443" y2="18273.3826" /><line stroke="rgb(10%,10%,16%)" x1="7141.3946" x2="6119.8704" y1="22398.3195" y2="31748.0315" /><line stroke="rgb(10%,10%,16%)" x1="27427.1682" x2="0" y1="23126.0644" y2="16128.8603" /><line stroke="rgb(10%,10%,16%)" x1="27203.8972" x2="18215.8685" y1="23163.3866" y2="0" /><line stroke="rgb(10%,10%,16%)" x1="17301.0919" x2="31748.0315" y1="4136.8888" y2="0" /><line stroke="rgb(10%,10%,16%)" x1="20004.0854" x2="25081.3347" y1="3626.2626" y2="0" /><line stroke="rgb(10%,10%,16%)" x1="2252.0836" x2="6312.4775" y1="28122.7363" y2="31748.0315" /><line stroke="rgb(10%,10%,16%)" x1="23160.4793" x2="0" y1="8838.8818" y2="19557.9395" /><line stroke="rgb(10%,10%,16%)" x1="9217.4711" x2="21913.5808" y1="10984.6024" y2="31748.0315" /><line stroke="rgb(10%,10%,16%)" x1="25782.2586" x2="31748.0315" y1="26895.9135" y2="31748.0315" /><line stroke="rgb(10%,10%,16%)" x1="27453.2865" x2="23745.8139" y1="10233.8359" y2="0" /><line stroke="rgb(10%,10%,16%)" x1="13322.9553" x2="8834.1728" y1="25933.4923" y2="31748.0315" /><line stroke="rgb(10%,10%,16%)" x1="25872.1116" x2="31748.0315" y1="18382.5115" y2="31748.0315" /><line stroke="rgb(10%,10%,16%)" x1="22666.2607" x2="0" y1="19812.7595" y2="16644.4689" /><line stroke="rgb(10%,10%,16%)" x1="4628.7654" x2="0" y1="5361.635" y2="9137.4783" /><line stroke="rgb(10%,10%,16%)" x1="24111.3986" x2="31748.0315" y1="15952.9902" y2="9819.9979" /><line stroke="rgb(10%,10%,16%)" x1="4311.7642" x2="0" y1="21867.6284" y2="31748.0315" /><line stroke="rgb(10%,10%,16%)" x1="18357.9944" x2="15595.5563" y1="7574.621" y2="0" /><line stroke="rgb(10%,10%,16%)" x1="5580.6022" x2="31748.0315" y1="25406.1519" y2="31748.0315" /><line stroke="rgb(10%,10%,16%)" x1="5835.6441" x2="31748.0315" y1="5369.0371" y2="0" /><line stroke="rgb(10%,10%,16%)" x1="17606.0867" x2="20134.5775" y1="19304.7962" y2="31748.0315" /><line stroke="rgb(10%,10%,16%)" x1="10613.4021" x2="0" y1="8493.0335" y2="0" /><line stroke="rgb(10%,10%,16%)" x1="10587.9472" x2="31748.0315" y1="7219.3357" y2="28974.1206" /><line stroke="rgb(10%,10%,16%)" x1="28281.9378" x2="11277.4255" y1="2169.7368" y2="0" /><line stroke="rgb(10%,10%,16%)" x1="3570.8917" x2="0" y1="28845.0279" y2="0" /><line stroke="rgb(10%,10%,16%)" x1="9284.1811" x2="31748.0315" y1="17460.8583" y2="2678.6821" /><line stroke="rgb(10%,10%,16%)" x1="10435.854" x2="31748.0315" y1="23230.3742" y2="31260.459" /><line stroke="rgb(10%,10%,16%)" x1="10745.5251" x2="0" y1="7024.7092" y2="0" /><line stroke="rgb(10%,10%,16%)" x1="13692.6514" x2="31748.0315" y1="6703.9084" y2="13802.398" /><line stroke="rgb(10%,10%,16%)" x1="14479.9531" x2="25635.2735" y1="2631.6212" y2="0" /><line stroke="rgb(10%,10%,16%)" x1="19794.8509" x2="3595.8869" y1="27878.9233" y2="574.5085" /><line stroke="rgb(10%,10%,16%)" x1="26406.3928" x2="2139.5402" y1="16958.6766" y2="31748.0315" /><line stroke="rgb(10%,10%,16%)" x1="8254.0751" x2="9622.1295" y1="15457.7951" y2="0" /><line stroke="rgb(10%,10%,16%)" x1="1110.9221" x2="29038.0561" y1="2467.3842" y2="0" /><line stroke="rgb(10%,10%,16%)" x1="1522.3759" x2="0" y1="6230.6623" y2="857.1173" /><line stroke="rgb(10%,10%,16%)" x1="15754.6717" x2="31748.0315" y1="18330.5168" y2="0" /><line stroke="rgb(10%,10%,16%)" x1="22141.9971" x2="31748.0315" y1="29793.5444" y2="31748.0315" /><line stroke="rgb(10%,10%,16%)" x1="10135.3146" x2="19988.0162" y1="7866.6204" y2="31748.0315" /><line stroke="rgb(10%,10%,16%)" x1="15046.7777" x2="31748.0315" y1="24204.1203" y2="23018.2346" /><line stroke="rgb(10%,10%,16%)" x1="31544.9758" x2="31748.0315" y1="24020.2834" y2="31748.0315" /><line stroke="rgb(10%,10%,16%)" x1="17542.5335" x2="31748.0315" y1="16128.1324" y2="31748.0315" /><line stroke="rgb(10%,10%,16%)" x1="734.5303" x2="0" y1="19126.3153" y2="31748.0315" /><line stroke="rgb(10%,10%,16%)" x1="21784.7965" x2="31748.0315" y1="13715.5607" y2="31748.0315" /><line stroke="rgb(10%,10%,16%)" x1="23329.1148" x2="31748.0315" y1="19683.6292" y2="31748.0315" /><line stroke="rgb(10%,10%,16%)" x1="8229.1334" x2="22233.1108" y1="2905.809" y2="0" /><line stroke="rgb(10%,10%,16%)" x1="21435.6896" x2="31748.0315" y1="14194.5995" y2="0" /><line stroke="rgb(10%,10%,16%)" x1="6723.0635" x2="31748.0315" y1="8446.5569" y2="4422.0185" /><line stroke="rgb(10%,10%,16%)" x1="19728.8609" x2="0" y1="22373.1416" y2="2944.6826" /><line stroke="rgb(10%,10%,16%)" x1="26245.0518" x2="31748.0315" y1="20664.8944" y2="15805.6811" /><line stroke="rgb(10%,10%,16%)" x1="20536.9387" x2="31748.0315" y1="4047.0091" y2="0" /><line stroke="rgb(10%,10%,16%)" x1="18006.537" x2="31748.0315" y1="9201.7928" y2="6609.4203" /><line stroke="rgb(10%,10%,16%)" x1="14727.9934" x2="31748.0315" y1="25845.6398" y2="31748.0315" /><line stroke="rgb(10%,10%,16%)" x1="19887.6304" x2="4932.367" y1="30015.1493" y2="2010.1925" /><line stroke="rgb(10%,10%,16%)" x1="15890.7678" x2="12284.2459" y1="25533.2843" y2="31748.0315" /><line stroke="rgb(10%,10%,16%)" x1="27080.6717" x2="26544.0651" y1="20534.9717" y2="31748.0315" /><line stroke="rgb(10%,10%,16%)" x1="10107.147" x2="0" y1="18806.5986" y2="19967.5395" /><line stroke="rgb(10%,10%,16%)" x1="28607.0519" x2="0" y1="18212.9452" y2="26568.9803" /><line stroke="rgb(10%,10%,16%)" x1="9732.3104" x2="0" y1="5153.2947" y2="30375.1516" /><line stroke="rgb(10%,10%,16%)" x1="4588.6152" x2="289.0054" y1="9172.5055" y2="0" /><line stroke="rgb(10%,10%,16%)" x1="24763.2357" x2="0" y1="14799.3723" y2="0" /><line stroke="rgb(10%,10%,16%)" x1="8815.1086" x2="31748.0315" y1="1160.0592" y2="985.7046" /><line stroke="rgb(10%,10%,16%)" x1="26541.1623" x2="6732.7984" y1="15476.0836" y2="0" /><line stroke="rgb(10%,10%,16%)" x1="7424.3967" x2="0" y1="25122.8559" y2="31748.0315" /><line stroke="rgb(10%,10%,16%)" x1="9582.9005" x2="31748.0315" y1="15459.5405" y2="31748.0315" /><line stroke="rgb(10%,10%,16%)" x1="16049.7576" x2="0" y1="50.9291" y2="0" /><line stroke="rgb(10%,10%,16%)" x1="29888.4552" x2="31748.0315" y1="15152.3079" y2="23005.1176" /><line stroke="rgb(10%,10%,16%)" x1="29301.0365" x2="3692.5208" y1="8858.0059" y2="27623.4375" /><line stroke="rgb(10%,10%,16%)" x1="22085.8641" x2="31748.0315" y1="22745.3996" y2="31748.0315" /><line stroke="rgb(10%,10%,16%)" x1="22986.5887" x2="2084.6978" y1="15022.1101" y2="0" /><line stroke="rgb(10%,10%,16%)" x1="3805.0828" x2="14263.4489" y1="20422.8454" y2="0" /><line stroke="rgb(10%,10%,16%)" x1="23634.7947" x2="0" y1="20902.8521" y2="31748.0315" /><line stroke="rgb(10%,10%,16%)" x1="21429.6243" x2="31748.0315" y1="13480.1738" y2="0" /><line stroke="rgb(10%,10%,16%)" x1="11873.0359" x2="0" y1="28957.5129" y2="7233.2234" /><line stroke="rgb(10%,10%,16%)" x1="30205.4762" x2="14346.2068" y1="14325.6319" y2="31748.0315" /><line stroke="rgb(10%,10%,16%)" x1="9084.3693" x2="31748.0315" y1="8208.9362" y2="20919.8416" /><line stroke="rgb(10%,10%,16%)" x1="7444.6773" x2="0" y1="16149.2758" y2="0" /><line stroke="rgb(10%,10%,16%)" x1="889.6625" x2="3377.3687" y1="23251.0792" y2="31748.0315" /><line stroke="rgb(10%,10%,16%)" x1="11610.1671" x2="27285.6177" y1="15798.2147" y2="31748.0315" /><line stroke="rgb(10%,10%,16%)" x1="19640.3033" x2="0" y1="23327.5443" y2="9966.5893" /><line stroke="rgb(10%,10%,16%)" x1="13045.7797" x2="0" y1="25207.7682" y2="22475.9929" /><line stroke="rgb(10%,10%,16%)" x1="23810.3921" x2="2234.6298" y1="28442.7803" y2="5152.7827" /><line stroke="rgb(10%,10%,16%)" x1="1325.3738" x2="2892.5298" y1="11433.4851" y2="0" /><line stroke="rgb(10%,10%,16%)" x1="5248.6473" x2="2345.2737" y1="1489.6531" y2="0" /><line stroke="rgb(10%,10%,16%)" x1="29279.2963" x2="27234.7404" y1="6008.274" y2="0" /><line stroke="rgb(10%,10%,16%)" x1="14240.3515" x2="31748.0315" y1="17705.3486" y2="26844.6248" /><line stroke="rgb(10%,10%,16%)" x1="1873.4265" x2="0" y1="14555.8328" y2="31748.0315" /><line stroke="rgb(10%,10%,16%)" x1="11584.9022" x2="1156.2655" y1="16160.9568" y2="31748.0315" /><line stroke="rgb(10%,10%,16%)" x1="8668.7768" x2="0" y1="4938.7769" y2="13895.101" /><line stroke="rgb(10%,10%,16%)" x1="20841.8044" x2="0" y1="30471.3202" y2="31748.0315" /><line stroke="rgb(10%,10%,16%)" x1="24352.7236" x2="31748.0315" y1="17206.0833" y2="31748.0315" /><line stroke="rgb(10%,10%,16%)" x1="24777.436" x2="0" y1="23852.9653" y2="24598.1354" /><line stroke="rgb(10%,10%,16%)" x1="21965.0117" x2="31748.0315" y1="4628.7794" y2="17363.4495" /><line stroke="rgb(10%,10%,16%)" x1="17791.5095" x2="31748.0315" y1="11184.9091" y2="31748.0315" /><line stroke="rgb(10%,10%,16%)" x1="27617.7285" x2="31748.0315" y1="6918.7898" y2="10517.2374" /><line stroke="rgb(10%,10%,16%)" x1="14672.537" x2="31748.0315" y1="9729.7529" y2="20130.8332" /><line stroke="rgb(10%,10%,16%)" x1="1075.023" x2="30371.4912" y1="14837.1127" y2="2603.7788" /><line stroke="rgb(10%,10%,16%)" x1="1483.0122" x2="2304.4022" y1="14122.965" y2="0" /><line stroke="rgb(10%,10%,16%)" x1="16471.8216" x2="0" y1="1801.1093" y2="0" /><line stroke="rgb(10%,10%,16%)" x1="25328.1584" x2="28246.2037" y1="14260.8965" y2="0" /><line stroke="rgb(10%,10%,16%)" x1="2503.9557" x2="21373.6784" y1="3512.4287" y2="29044.1946" /><line stroke="rgb(10%,10%,16%)" x1="12072.9107" x2="0" y1="26312.312" y2="31748.0315" /><line stroke="rgb(10%,10%,16%)" x1="8980.8288" x2="1570.0617" y1="13292.2952" y2="0" /><line stroke="rgb(10%,10%,16%)" x1="10432.6291" x2="27795.4646" y1="16373.7249" y2="31748.0315" /><line stroke="rgb(10%,10%,16%)" x1="1852.2197" x2="0" y1="8600.2429" y2="31748.0315" /><line stroke="rgb(10%,10%,16%)" x1="7042.6523" x2="0" y1="8165.0533" y2="0" /><line stroke="rgb(10%,10%,16%)" x1="16649.3072" x2="0" y1="922.5028" y2="0" /><line stroke="rgb(10%,10%,16%)" x1="16458.9985" x2="11590.9681" y1="17295.9759" y2="31748.0315" /><line stroke="rgb(10%,10%,16%)" x1="27245.7841" x2="31748.0315" y1="4662.2918" y2="0" /><line stroke="rgb(10%,10%,16%)" x1="9508.2003" x2="31748.0315" y1="5765.2008" y2="0" /><line stroke="rgb(10%,10%,16%)" x1="23799.4876" x2="21669.697" y1="7919.9264" y2="0" /><line stroke="rgb(10%,10%,16%)" x1="29273.7499" x2="29425.871" y1="7986.2302" y2="0" /><line stroke="rgb(10%,10%,16%)" x1="6714.9772" x2="759.2738" y1="9878.1899" y2="31748.0315" /><line stroke="rgb(10%,10%,16%)" x1="3563.7985" x2="0" y1="18701.245" y2="31748.0315" /><line stroke="rgb(10%,10%,16%)" x1="7873.2982" x2="0" y1="5762.3965" y2="26285.7704" /><line stroke="rgb(10%,10%,16%)" x1="6269.8538" x2="0" y1="14853.5977" y2="31748.0315" /><line stroke="rgb(10%,10%,16%)" x1="5405.3127" x2="14586.2774" y1="7369.9852" y2="31748.0315" /><line stroke="rgb(10%,10%,16%)" x1="16396.603" x2="18469.1043" y1="2613.5718" y2="31748.0315" /><line stroke="rgb(10%,10%,16%)" x1="26162.4833" x2="0" y1="15265.4565" y2="23963.6881" /><line stroke="rgb(10%,10%,16%)" x1="23798.5481" x2="4652.8287" y1="24034.8159" y2="31748.0315" /><line stroke="rgb(10%,10%,16%)" x1="20399.2709" x2="6008.1521" y1="31313.6318" y2="31748.0315" /><line stroke="rgb(10%,10%,16%)" x1="17736.9583" x2="23896.6013" y1="31133.9873" y2="0" /><line stroke="rgb(10%,10%,16%)" x1="24540.6307" x2="0" y1="9735.1787" y2="20836.1976" /><line stroke="rgb(10%,10%,16%)" x1="29797.9582" x2="13313.1646" y1="13872.3455" y2="0" /><line stroke="rgb(10%,10%,16%)" x1="20532.6118" x2="9638.661" y1="24229.5213" y2="31748.0315" /><line stroke="rgb(10%,10%,16%)" x1="7096.4951" x2="15059.2595" y1="4685.0805" y2="31748.0315" /><line stroke="rgb(10%,10%,16%)" x1="11111.2712" x2="0" y1="22737.2869" y2="31748.0315" /><line stroke="rgb(10%,10%,16%)" x1="14478.0094" x2="0" y1="5428.0734" y2="21948.5631" /><line stroke="rgb(10%,10%,16%)" x1="21868.641" x2="6358.8074" y1="105.6251" y2="27807.2958" /><line stroke="rgb(10%,10%,16%)" x1="21235.4215" x2="31748.0315" y1="29288.6149" y2="18218.5353" /><line stroke="rgb(10%,10%,16%)" x1="20377.7788" x2="31713.5676" y1="181.1744" y2="0" /><line stroke="rgb(10%,10%,16%)" x1="8780.6159" x2="31748.0315" y1="15526.8911" y2="2284.317" /><line stroke="rgb(10%,10%,16%)" x1="7553.2493" x2="16307.3826" y1="7183.3601" y2="31748.0315" /><line stroke="rgb(10%,10%,16%)" x1="1485.9323" x2="8977.0909" y1="22480.8152" y2="0" /><line stroke="rgb(10%,10%,16%)" x1="24285.7336" x2="31748.0315" y1="21771.3406" y2="16760.8562" /><line stroke="rgb(10%,10%,16%)" x1="17817.4426" x2="12500.2763" y1="25486.7008" y2="0" /><line stroke="rgb(10%,10%,16%)" x1="16978.1785" x2="19887.9898" y1="17805.9427" y2="31748.0315" /><line stroke="rgb(10%,10%,16%)" x1="16550.9153" x2="31748.0315" y1="22001.3522" y2="0" /><line stroke="rgb(10%,10%,16%)" x1="21493.7288" x2="21542.0814" y1="7095.5998" y2="0" /><line stroke="rgb(10%,10%,16%)" x1="13717.7969" x2="0" y1="8597.538" y2="0" /><line stroke="rgb(10%,10%,16%)" x1="11300.0316" x2="0" y1="3199.358" y2="30186.197" /><line stroke="rgb(10%,10%,16%)" x1="311.5626" x2="16581.434" y1="27256.9317" y2="31748.0315" /><line stroke="rgb(10%,10%,16%)" x1="23014.8717" x2="10147.6399" y1="2062.9077" y2="31086.5507" /><line stroke="rgb(10%,10%,16%)" x1="25049.4506" x2="31748.0315" y1="8154.1103" y2="30055.0039" /><line stroke="rgb(10%,10%,16%)" x1="4052.9655" x2="0" y1="2117.2622" y2="23284.6963" /><line stroke="rgb(10%,10%,16%)" x1="426.1182" x2="0" y1="3260.7977" y2="31748.0315" /><line stroke="rgb(10%,10%,16%)" x1="2542.4804" x2="28798.4249" y1="10813.2565" y2="28661.5864" /><line stroke="rgb(10%,10%,16%)" x1="20966.3573" x2="19234.8317" y1="12228.9376" y2="0" /><line stroke="rgb(10%,10%,16%)" x1="4789.5914" x2="0" y1="1360.7793" y2="17300.2788" /><line stroke="rgb(10%,10%,16%)" x1="23784.9403" x2="31748.0315" y1="21113.7882" y2="31748.0315" /><line stroke="rgb(10%,10%,16%)" x1="3309.1003" x2="9901.9404" y1="28005.8887" y2="0" /><line stroke="rgb(10%,10%,16%)" x1="22491.0565" x2="0" y1="29737.0392" y2="31748.0315" /><line stroke="rgb(10%,10%,16%)" x1="394.2913" x2="0" y1="23229.5817" y2="31748.0315" /><line stroke="rgb(10%,10%,16%)" x1="17251.9654" x2="31748.0315" y1="7075.5054" y2="11833.598" /><line stroke="rgb(10%,10%,16%)" x1="9964.0407" x2="2558.765" y1="30295.4956" y2="0" /><line stroke="rgb(10%,10%,16%)" x1="7008.1189" x2="30599.5922" y1="21629.151" y2="31748.0315" /><line stroke="rgb(10%,10%,16%)" x1="14954.5038" x2="26525.768" y1="3876.509" y2="0" /><line stroke="rgb(10%,10%,16%)" x1="18756.1286" x2="31748.0315" y1="4658.1692" y2="31748.0315" /><line stroke="rgb(10%,10%,16%)" x1="358.6487" x2="31748.0315" y1="15235.8479" y2="11680.5931" /><line stroke="rgb(10%,10%,16%)" x1="14428.4647" x2="0" y1="11401.1961" y2="31748.0315" /><line stroke="rgb(10%,10%,16%)" x1="17632.5299" x2="0" y1="24663.0665" y2="12464.8846" /><line stroke="rgb(10%,10%,16%)" x1="26947.5363" x2="0" y1="14098.3566" y2="4550.6157" /><line stroke="rgb(10%,10%,16%)" x1="4159.8886" x2="31748.0315" y1="12426.4371" y2="20916.017" /><line stroke="rgb(10%,10%,16%)" x1="1307.781" x2="25094.6645" y1="4427.1965" y2="25453.8862" /><line stroke="rgb(10%,10%,16%)" x1="6925.4788" x2="0" y1="24122.7219" y2="31748.0315" /><line stroke="rgb(10%,10%,16%)" x1="22125.2944" x2="31748.0315" y1="6053.7761" y2="19190.4939" /><line stroke="rgb(10%,10%,16%)" x1="26063.2512" x2="987.0396" y1="17790.226" y2="31748.0315" /><line stroke="rgb(10%,10%,16%)" x1="21167.9185" x2="31748.0315" y1="29136.3632" y2="31748.0315" /><line stroke="rgb(10%,10%,16%)" x1="6693.0619" x2="0" y1="10895.2289" y2="31748.0315" /><line stroke="rgb(10%,10%,16%)" x1="6227.3621" x2="31748.0315" y1="15406.1024" y2="5178.6519" /><line stroke="rgb(10%,10%,16%)" x1="1472.351" x2="22998.1722" y1="15253.9472" y2="0" /><line stroke="rgb(10%,10%,16%)" x1="10957.3759" x2="0" y1="25625.556" y2="11490.1481" /><line stroke="rgb(10%,10%,16%)" x1="9519.0461" x2="31748.0315" y1="24510.7778" y2="26812.6027" /><line stroke="rgb(10%,10%,16%)" x1="11599.9698" x2="0" y1="29994.2" y2="29992.3886" /><line stroke="rgb(10%,10%,16%)" x1="24384.0239" x2="0" y1="23313.9401" y2="12153.7018" /><line stroke="rgb(10%,10%,16%)" x1="5550.2978" x2="0" y1="20475.8912" y2="31748.0315" /><line stroke="rgb(10%,10%,16%)" x1="23850.1635" x2="31748.0315" y1="9938.2283" y2="0" /><line stroke="rgb(10%,10%,16%)" x1="29808.2294" x2="31748.0315" y1="12174.7189" y2="0" /><line stroke="rgb(10%,10%,16%)" x1="22402.3379" x2="1187.2779" y1="11586.0658" y2="31748.0315" /><line stroke="rgb(10%,10%,16%)" x1="23109.033" x2="31748.0315" y1="24425.0819" y2="15684.4501" /><line stroke="rgb(10%,10%,16%)" x1="13221.7937" x2="14063.3799" y1="4016.2936" y2="31748.0315" /><line stroke="rgb(10%,10%,16%)" x1="11659.6032" x2="31748.0315" y1="14987.9321" y2="22249.8374" /><line stroke="rgb(10%,10%,16%)" x1="15584.8118" x2="11346.4456" y1="3980.3027" y2="0" /><line stroke="rgb(10%,10%,16%)" x1="5408.6174" x2="30226.8526" y1="25549.4823" y2="5750.6767" /><line stroke="rgb(10%,10%,16%)" x1="9038.4388" x2="0" y1="24842.2954" y2="31748.0315" /><line stroke="rgb(10%,10%,16%)" x1="11465.0261" x2="31748.0315" y1="17029.4069" y2="4367.3696" /><line stroke="rgb(10%,10%,16%)" x1="18625.202" x2="258.2025" y1="17587.8873" y2="31748.0315" /><line stroke="rgb(10%,10%,16%)" x1="402.7614" x2="0" y1="19875.2845" y2="31748.0315" /><line stroke="rgb(10%,10%,16%)" x1="5576.6315" x2="9323.3681" y1="17206.537" y2="0" /><line stroke="rgb(10%,10%,16%)" x1="27059.9282" x2="0" y1="14333.3472" y2="10662.7256" /><line stroke="rgb(10%,10%,16%)" x1="25373.5409" x2="31748.0315" y1="12983.9477" y2="0" /><line stroke="rgb(10%,10%,16%)" x1="5025.6009" x2="23379.2415" y1="8097.4114" y2="0" /><line stroke="rgb(10%,10%,16%)" x1="19738.7584" x2="31748.0315" y1="2131.5034" y2="0" /><line stroke="rgb(10%,10%,16%)" x1="20671.6726" x2="0" y1="24417.1608" y2="9445.5514" /><line stroke="rgb(10%,10%,16%)" x1="6101.8179" x2="0" y1="1040.0536" y2="0" /><line stroke="rgb(10%,10%,16%)" x1="20609.5659" x2="31748.0315" y1="3497.1207" y2="2900.3738" /><line stroke="rgb(10%,10%,16%)" x1="31246.0329" x2="15781.62" y1="17338.3903" y2="31748.0315" /><line stroke="rgb(10%,10%,16%)" x1="18465.2872" x2="22446.3251" y1="9105.635" y2="31748.0315" /><line stroke="rgb(10%,10%,16%)" x1="6004.5693" x2="18068.4716" y1="10000.2435" y2="0" /><line stroke="rgb(10%,10%,16%)" x1="20942.6843" x2="0" y1="29407.7099" y2="31748.0315" /><line stroke="rgb(10%,10%,16%)" x1="19349.2872" x2="31748.0315" y1="27016.0008" y2="3034.3807" /><line stroke="rgb(10%,10%,16%)" x1="22934.5696" x2="27710.8728" y1="6671.5871" y2="31748.0315" /><line stroke="rgb(10%,10%,16%)" x1="8435.793" x2="0" y1="29452.3402" y2="31748.0315" /><line stroke="rgb(10%,10%,16%)" x1="19089.2017" x2="0" y1="12368.2145" y2="3986.6889" /><line stroke="rgb(10%,10%,16%)" x1="4180.4029" x2="13945.3173" y1="27053.4908" y2="31748.0315" /><line stroke="rgb(10%,10%,16%)" x1="13496.0811" x2="0" y1="22778.6261" y2="31748.0315" /><line stroke="rgb(10%,10%,16%)" x1="25660.2493" x2="31748.0315" y1="7691.0021" y2="17564.2844" /><line stroke="rgb(10%,10%,16%)" x1="26446.2305" x2="0" y1="29271.8168" y2="31748.0315" /><line stroke="rgb(10%,10%,16%)" x1="7705.454" x2="27371.3971" y1="28213.2725" y2="3289.6254" /><line stroke="rgb(10%,10%,16%)" x1="19492.1304" x2="21289.4366" y1="14804.1564" y2="31748.0315" /><line stroke="rgb(10%,10%,16%)" x1="9545.3631" x2="0" y1="10055.53" y2="0" /><line stroke="rgb(10%,10%,16%)" x1="12204.0299" x2="31616.7633" y1="23197.9663" y2="0" /><line stroke="rgb(10%,10%,16%)" x1="28100.9442" x2="22985.0312" y1="28499.769" y2="31748.0315" /><line stroke="rgb(10%,10%,16%)" x1="29073.7195" x2="14543.0776" y1="25593.8484" y2="31748.0315" /><line stroke="rgb(10%,10%,16%)" x1="14044.8879" x2="31748.0315" y1="25679.2259" y2="27434.4185" /><line stroke="rgb(10%,10%,16%)" x1="22702.5729" x2="31748.0315" y1="14352.4633" y2="14286.3859" /><line stroke="rgb(10%,10%,16%)" x1="10200.2917" x2="31748.0315" y1="14452.5056" y2="0" /><line stroke="rgb(10%,10%,16%)" x1="27853.7204" x2="29128.333" y1="29507.5576" y2="0" /><line stroke="rgb(10%,10%,16%)" x1="11903.7748" x2="31748.0315" y1="4373.213" y2="0" /><line stroke="rgb(10%,10%,16%)" x1="27602.8846" x2="0" y1="26694.9175" y2="31438.4261" /><line stroke="rgb(10%,10%,16%)" x1="10982.4574" x2="0" y1="24907.2676" y2="31748.0315" /><line stroke="rgb(10%,10%,16%)" x1="28870.1026" x2="31748.0315" y1="31621.9143" y2="31748.0315" /><line stroke="rgb(10%,10%,16%)" x1="9303.3371" x2="0" y1="15986.851" y2="31748.0315" /><line stroke="rgb(10%,10%,16%)" x1="8158.4397" x2="6936.2519" y1="28360.0747" y2="0" /><line stroke="rgb(10%,10%,16%)" x1="3064.9053" x2="15173.6163" y1="9912.1153" y2="31748.0315" /><line stroke="rgb(10%,10%,16%)" x1="27774.6642" x2="31748.0315" y1="4975.9403" y2="5026.065" /><line stroke="rgb(10%,10%,16%)" x1="4391.47" x2="9736.464" y1="12703.1991" y2="31748.0315" /><line stroke="rgb(10%,10%,16%)" x1="3336.2297" x2="0" y1="10516.3516" y2="0" /><line stroke="rgb(10%,10%,16%)" x1="29861.2905" x2="31748.0315" y1="26138.816" y2="31748.0315" /><line stroke="rgb(10%,10%,16%)" x1="17148.5008" x2="28697.5095" y1="9366.4609" y2="0" /><line stroke="rgb(10%,10%,16%)" x1="8123.2974" x2="31748.0315" y1="24514.98" y2="31748.0315" /><line stroke="rgb(10%,10%,16%)" x1="25341.3482" x2="31748.0315" y1="23019.2728" y2="0" /><line stroke="rgb(10%,10%,16%)" x1="22069.3722" x2="0" y1="5288.7651" y2="23289.5639" /><line stroke="rgb(10%,10%,16%)" x1="28459.7356" x2="31748.0315" y1="8213.2819" y2="31748.0315" /><line stroke="rgb(10%,10%,16%)" x1="21171.1832" x2="22880.6402" y1="10998.8439" y2="31748.0315" /><line stroke="rgb(10%,10%,16%)" x1="10873.0557" x2="31748.0315" y1="12637.595" y2="27161.3745" /><line stroke="rgb(10%,10%,16%)" x1="23204.0044" x2="5778.3601" y1="19488.8872" y2="31748.0315" /><line stroke="rgb(10%,10%,16%)" x1="1664.6085" x2="31748.0315" y1="16594.4686" y2="14497.8781" /><line stroke="rgb(10%,10%,16%)" x1="10085.8597" x2="0" y1="4339.6284" y2="10510.378" /><line stroke="rgb(10%,10%,16%)" x1="23622.1603" x2="977.8564" y1="28945.8562" y2="31748.0315" /><line stroke="rgb(10%,10%,16%)" x1="30002.3616" x2="31748.0315" y1="9230.5524" y2="26228.347" /><line stroke="rgb(10%,10%,16%)" x1="22263.7849" x2="29466.7083" y1="13033.5467" y2="0" /><line stroke="rgb(10%,10%,16%)" x1="22094.4638" x2="0" y1="23833.731" y2="19594.2032" /><line stroke="rgb(10%,10%,16%)" x1="26678.7427" x2="0" y1="31620.7716" y2="18106.6439" /><line stroke="rgb(10%,10%,16%)" x1="21284.6264" x2="22693.7454" y1="15927.1595" y2="31748.0315" /><line stroke="rgb(10%,10%,16%)" x1="5521.5173" x2="31748.0315" y1="15842.9045" y2="22778.1332" /><line stroke="rgb(10%,10%,16%)" x1="14372.7013" x2="0" y1="9290.7795" y2="0" /><line stroke="rgb(10%,10%,16%)" x1="22392.9059" x2="2645.5831" y1="20208.6137" y2="0" /><line stroke="rgb(10%,10%,16%)" x1="12032.8611" x2="0" y1="1128.1478" y2="0" /><line stroke="rgb(10%,10%,16%)" x1="25241.3462" x2="31748.0315" y1="13764.1451" y2="0" /><line stroke="rgb(10%,10%,16%)" x1="4844.0899" x2="18253.0523" y1="14757.2666" y2="0" /><line stroke="rgb(10%,10%,16%)" x1="7607.3696" x2="0" y1="24354.5206" y2="0" /><line stroke="rgb(10%,10%,16%)" x1="27464.1251" x2="13485.2362" y1="10645.8225" y2="0" /><line stroke="rgb(10%,10%,16%)" x1="2500.4971" x2="0" y1="11458.3314" y2="0" /><line stroke="rgb(10%,10%,16%)" x1="12324.954" x2="29619.8998" y1="19367.3834" y2="31748.0315" /><line stroke="rgb(10%,10%,16%)" x1="15719.7661" x2="17504.9319" y1="19274.2084" y2="31748.0315" /><line stroke="rgb(10%,10%,16%)" x1="2413.106" x2="30282.2403" y1="28677.1664" y2="31748.0315" /><line stroke="rgb(10%,10%,16%)" x1="12895.8231" x2="0" y1="3528.4459" y2="1662.3899" /><line stroke="rgb(10%,10%,16%)" x1="4501.799" x2="0" y1="4605.6346" y2="3123.8786" /><line stroke="rgb(10%,10%,16%)" x1="28597.6915" x2="31748.0315" y1="26669.9503" y2="31748.0315" /><line stroke="rgb(10%,10%,16%)" x1="17515.9783" x2="7246.4868" y1="5693.489" y2="0" /><line stroke="rgb(10%,10%,16%)" x1="6350.0269" x2="15358.456" y1="28327.4941" y2="31748.0315" /><line stroke="rgb(10%,10%,16%)" x1="31090.5437" x2="31748.0315" y1="22039.3611" y2="0" /><line stroke="rgb(10%,10%,16%)" x1="12933.4065" x2="31748.0315" y1="23775.4315" y2="1621.3666" /><line stroke="rgb(10%,10%,16%)" x1="20478.3438" x2="31748.0315" y1="30276.6544" y2="16884.5817" /><line stroke="rgb(10%,10%,16%)" x1="17597.3184" x2="0" y1="18954.536" y2="31748.0315" /><line stroke="rgb(10%,10%,16%)" x1="20008.1378" x2="31748.0315" y1="4818.2996" y2="0" /><line stroke="rgb(10%,10%,16%)" x1="11095.8334" x2="31748.0315" y1="6721.4137" y2="0" /><line stroke="rgb(10%,10%,16%)" x1="10769.2849" x2="31748.0315" y1="11956.994" y2="22278.7974" /><line stroke="rgb(10%,10%,16%)" x1="24650.2476" x2="18938.3253" y1="20725.1192" y2="31748.0315" /><line stroke="rgb(10%,10%,16%)" x1="11346.2332" x2="15602.3257" y1="20813.598" y2="0" /><line stroke="rgb(10%,10%,16%)" x1="11972.7376" x2="0" y1="11647.9252" y2="31748.0315" /><line stroke="rgb(10%,10%,16%)" x1="8789.8372" x2="8286.0023" y1="19054.561" y2="0" /><line stroke="rgb(10%,10%,16%)" x1="1882.5704" x2="24909.7111" y1="13429.811" y2="31748.0315" /><line stroke="rgb(10%,10%,16%)" x1="11523.9398" x2="0" y1="18707.1968" y2="31748.0315" /><line stroke="rgb(10%,10%,16%)" x1="22756.6283" x2="31748.0315" y1="7777.3605" y2="7260.4555" /><line stroke="rgb(10%,10%,16%)" x1="28441.9614" x2="31748.0315" y1="30413.8981" y2="24754.9477" /><line stroke="rgb(10%,10%,16%)" x1="19898.6712" x2="0" y1="11223.9308" y2="10691.157" /><line stroke="rgb(10%,10%,16%)" x1="31363.493" x2="8280.3421" y1="4756.3231" y2="0" /><line stroke="rgb(10%,10%,16%)" x1="6685.6158" x2="28988.1399" y1="14927.8502" y2="0" /><line stroke="rgb(10%,10%,16%)" x1="31.052" x2="19602.0545" y1="26339.7257" y2="31748.0315" /><line stroke="rgb(10%,10%,16%)" x1="23552.0557" x2="476.348" y1="20648.5718" y2="0" /><line stroke="rgb(10%,10%,16%)" x1="26029.2328" x2="31748.0315" y1="11996.5943" y2="31748.0315" /><line stroke="rgb(10%,10%,16%)" x1="25489.4149" x2="31748.0315" y1="29442.2204" y2="16574.6724" /><line stroke="rgb(10%,10%,16%)" x1="20520.8701" x2="0" y1="27443.9139" y2="31748.0315" /><line stroke="rgb(10%,10%,16%)" x1="31356.4389" x2="31748.0315" y1="6615.0216" y2="0" /><line stroke="rgb(10%,10%,16%)" x1="23122.7438" x2="31748.0315" y1="28744.7155" y2="31748.0315" /><line stroke="rgb(10%,10%,16%)" x1="26509.8778" x2="0" y1="19395.7726" y2="20124.1534" /><line stroke="rgb(10%,10%,16%)" x1="14371.4863" x2="31748.0315" y1="16429.0818" y2="1614.3343" /><line stroke="rgb(10%,10%,16%)" x1="16362.0293" x2="0" y1="24276.7509" y2="31748.0315" /><line stroke="rgb(10%,10%,16%)" x1="31297.0558" x2="15080.709" y1="24157.1699" y2="31748.0315" /><line stroke="rgb(10%,10%,16%)" x1="22979.0364" x2="31748.0315" y1="26635.1483" y2="3881.2007" /><line stroke="rgb(10%,10%,16%)" x1="28037.5605" x2="0" y1="24228.1911" y2="26565.2541" /><line stroke="rgb(10%,10%,16%)" x1="25673.4886" x2="27271.129" y1="763.6055" y2="0" /><line stroke="rgb(10%,10%,16%)" x1="70.4126" x2="0" y1="6131.4921" y2="19469.2748" /><line stroke="rgb(10%,10%,16%)" x1="21454.2824" x2="31748.0315" y1="8897.4432" y2="0" /><line stroke="rgb(10%,10%,16%)" x1="9875.222" x2="12610.7172" y1="4772.0511" y2="0" /><line stroke="rgb(10%,10%,16%)" x1="11725.4118" x2="28201.7447" y1="20650.0777" y2="31748.0315" /><line stroke="rgb(10%,10%,16%)" x1="18484.1789" x2="0" y1="18860.0455" y2="31748.0315" /><line stroke="rgb(10%,10%,16%)" x1="1469.6227" x2="24437.5713" y1="27780.0257" y2="31748.0315" /><line stroke="rgb(10%,10%,16%)" x1="25669.0036" x2="8756.9485" y1="9407.0769" y2="0" /><line stroke="rgb(10%,10%,16%)" x1="6094.1441" x2="31748.0315" y1="28219.6242" y2="31748.0315" /><line stroke="rgb(10%,10%,16%)" x1="25301.3155" x2="31748.0315" y1="18636.0845" y2="22453.374" /><line stroke="rgb(10%,10%,16%)" x1="7791.5878" x2="31748.0315" y1="6178.6077" y2="19439.2012" /><line stroke="rgb(10%,10%,16%)" x1="17886.6593" x2="0" y1="23271.1906" y2="23222.1183" /><line stroke="rgb(10%,10%,16%)" x1="8684.0675" x2="31748.0315" y1="24616.2485" y2="31748.0315" /><line stroke="rgb(10%,10%,16%)" x1="7254.4357" x2="2454.8121" y1="2400.8065" y2="31748.0315" /><line stroke="rgb(10%,10%,16%)" x1="16382.8573" x2="0" y1="16991.6678" y2="31748.0315" /><line stroke="rgb(10%,10%,16%)" x1="8491.7887" x2="31748.0315" y1="9564.0027" y2="28834.0767" /><line stroke="rgb(10%,10%,16%)" x1="2928.9164" x2="3552.3583" y1="9151.4938" y2="31748.0315" /><line stroke="rgb(10%,10%,16%)" x1="23692.7748" x2="0" y1="10734.2639" y2="0" /><line stroke="rgb(10%,10%,16%)" x1="18253.3099" x2="0" y1="5810.5701" y2="2287.3316" /><line stroke="rgb(10%,10%,16%)" x1="21675.2937" x2="16201.505" y1="2423.7566" y2="0" /><line stroke="rgb(10%,10%,16%)" x1="31588.6629" x2="31748.0315" y1="2460.0815" y2="21145.154" /><line stroke="rgb(10%,10%,16%)" x1="9431.997" x2="25426.2889" y1="22033.0494" y2="31748.0315" /><line stroke="rgb(10%,10%,16%)" x1="8368.6335" x2="31748.0315" y1="7586.7142" y2="3565.8613" /><line stroke="rgb(10%,10%,16%)" x1="19532.397" x2="31280.9348" y1="20066.6392" y2="31748.0315" /><line stroke="rgb(10%,10%,16%)" x1="28834.9974" x2="31748.0315" y1="7115.6964" y2="26419.1731" /><line stroke="rgb(10%,10%,16%)" x1="17535.1345" x2="31748.0315" y1="25127.4544" y2="31748.0315" /><line stroke="rgb(10%,10%,16%)" x1="17174.4615" x2="8729.1493" y1="18140.2327" y2="31748.0315" /><line stroke="rgb(10%,10%,16%)" x1="23431.5504" x2="31748.0315" y1="21679.6323" y2="31748.0315" /><line stroke="rgb(10%,10%,16%)" x1="1191.764" x2="0" y1="708.2752" y2="26831.7209" /><line stroke="rgb(10%,10%,16%)" x1="31528.6605" x2="2039.81" y1="5081.4324" y2="0" /><line stroke="rgb(10%,10%,16%)" x1="27774.2166" x2="31748.0315" y1="309.7453" y2="19775.6142" /><line stroke="rgb(10%,10%,16%)" x1="28135.5026" x2="0" y1="10393.8322" y2="9429.4102" /><line stroke="rgb(10%,10%,16%)" x1="10185.4987" x2="19955.7398" y1="2285.3398" y2="31748.0315" /><line stroke="rgb(10%,10%,16%)" x1="7048.4727" x2="30681.1865" y1="30761.2425" y2="31748.0315" /><line stroke="rgb(10%,10%,16%)" x1="26356.0244" x2="28195.4521" y1="18937.8027" y2="0" /><line stroke="rgb(10%,10%,16%)" x1="21546.7973" x2="20929.5119" y1="15704.8183" y2="0" /><line stroke="rgb(10%,10%,16%)" x1="8732.1854" x2="31409.8375" y1="7891.4323" y2="0" /><line stroke="rgb(10%,10%,16%)" x1="10431.6119" x2="0" y1="2267.196" y2="8305.8215" /><line stroke="rgb(10%,10%,16%)" x1="1188.4035" x2="0" y1="8963.3655" y2="0" /><line stroke="rgb(10%,10%,16%)" x1="9477.972" x2="0" y1="2959.8484" y2="5605.8373" /><line stroke="rgb(10%,10%,16%)" x1="16800.1339" x2="0" y1="22554.8891" y2="18932.5722" /><line stroke="rgb(10%,10%,16%)" x1="28257.394" x2="31748.0315" y1="16202.5401" y2="11635.1559" /><line stroke="rgb(10%,10%,16%)" x1="20302.2458" x2="31748.0315" y1="27645.1725" y2="17593.6172" /><line stroke="rgb(10%,10%,16%)" x1="11074.2743" x2="293.3204" y1="674.8799" y2="30536.369" /><line stroke="rgb(10%,10%,16%)" x1="10244.7668" x2="3284.2427" y1="28457.4222" y2="31748.0315" /><line stroke="rgb(10%,10%,16%)" x1="20380.7932" x2="31748.0315" y1="11673.4456" y2="0" /><line stroke="rgb(10%,10%,16%)" x1="1597.3774" x2="0" y1="12306.5807" y2="0" /><line stroke="rgb(10%,10%,16%)" x1="28021.4814" x2="868.5054" y1="16989.8157" y2="538.2688" /><line stroke="rgb(10%,10%,16%)" x1="12415.5334" x2="31748.0315" y1="24890.7028" y2="14892.4704" /><line stroke="rgb(10%,10%,16%)" x1="14825.5107" x2="0" y1="10705.0415" y2="5917.6895" /><line stroke="rgb(10%,10%,16%)" x1="4861.2787" x2="31748.0315" y1="3514.6481" y2="14417.1426" /><line stroke="rgb(10%,10%,16%)" x1="25940.7406" x2="16832.6444" y1="28946.5876" y2="0" /><line stroke="rgb(10%,10%,16%)" x1="2099.2312" x2="28158.1068" y1="8833.1871" y2="0" /><line stroke="rgb(10%,10%,16%)" x1="28204.063" x2="31748.0315" y1="18613.0023" y2="0" /><line stroke="rgb(10%,10%,16%)" x1="27471.8146" x2="31748.0315" y1="4703.3246" y2="0" /><line stroke="rgb(10%,10%,16%)" x1="11400.2762" x2="31748.0315" y1="27464.2684" y2="31748.0315" /><line stroke="rgb(10%,10%,16%)" x1="12829.0019" x2="0" y1="25217.6634" y2="9377.3365" /><line stroke="rgb(10%,10%,16%)" x1="15803.4422" x2="0" y1="9961.0793" y2="31748.0315" /><line stroke="rgb(10%,10%,16%)" x1="21987.3965" x2="31748.0315" y1="26263.3055" y2="27255.4693" /><line stroke="rgb(10%,10%,16%)" x1="22736.7693" x2="12179.2099" y1="11785.4187" y2="0" /><line stroke="rgb(10%,10%,16%)" x1="2789.4219" x2="0" y1="28370.6984" y2="18475.1118" /><line stroke="rgb(10%,10%,16%)" x1="28351.8403" x2="25359.1158" y1="22205.4682" y2="0" /><line stroke="rgb(10%,10%,16%)" x1="6459.8232" x2="0" y1="16367.0086" y2="0" /><line stroke="rgb(10%,10%,16%)" x1="21154.7805" x2="0" y1="11008.7377" y2="0" /><line stroke="rgb(10%,10%,16%)" x1="15697.6097" x2="0" y1="13574.9554" y2="0" /><line stroke="rgb(10%,10%,16%)" x1="10988.6419" x2="0" y1="17021.9039" y2="9.9619" /><line stroke="rgb(10%,10%,16%)" x1="30602.1028" x2="890.8679" y1="23304.9749" y2="31748.0315" /><line stroke="rgb(10%,10%,16%)" x1="28340.3058" x2="31748.0315" y1="17817.5637" y2="29140.7983" /><line stroke="rgb(10%,10%,16%)" x1="1641.2659" x2="0" y1="1809.7925" y2="6477.0893" /><line stroke="rgb(10%,10%,16%)" x1="4027.4549" x2="0" y1="15992.6476" y2="31748.0315" /><line stroke="rgb(10%,10%,16%)" x1="7955.8509" x2="0" y1="842.8" y2="0" /><line stroke="rgb(10%,10%,16%)" x1="28595.5775" x2="31748.0315" y1="26448.8821" y2="4577.553" /><line stroke="rgb(10%,10%,16%)" x1="9040.3063" x2="0" y1="15708.6759" y2="39.9496" /><line stroke="rgb(10%,10%,16%)" x1="9445.8212" x2="4190.9375" y1="4952.0454" y2="0" /><line stroke="rgb(10%,10%,16%)" x1="2762.5908" x2="0" y1="3049.0144" y2="0" /><line stroke="rgb(10%,10%,16%)" x1="21579.2499" x2="13255.9531" y1="15326.4245" y2="0" /><line stroke="rgb(10%,10%,16%)" x1="10301.3976" x2="3941.9252" y1="28811.5307" y2="31748.0315" /><line stroke="rgb(10%,10%,16%)" x1="7377.799" x2="10981.1788" y1="27329.0086" y2="0" /><line stroke="rgb(10%,10%,16%)" x1="28701.1031" x2="31748.0315" y1="11148.0926" y2="0" /><line stroke="rgb(10%,10%,16%)" x1="16209.8658" x2="0" y1="26950.6091" y2="0" /><line stroke="rgb(10%,10%,16%)" x1="16555.58" x2="0" y1="24058.3188" y2="0.8772" /><line stroke="rgb(10%,10%,16%)" x1="17060.09" x2="29550.0382" y1="28290.234" y2="31748.0315" /><line stroke="rgb(10%,10%,16%)" x1="19459.7547" x2="0" y1="15757.1528" y2="3655.5031" /><line stroke="rgb(10%,10%,16%)" x1="8518.1651" x2="0" y1="29955.5183" y2="31748.0315" /><line stroke="rgb(10%,10%,16%)" x1="6290.083" x2="31748.0315" y1="13520.8562" y2="19030.6602" /><line stroke="rgb(10%,10%,16%)" x1="21165.035" x2="31748.0315" y1="21235.4403" y2="6934.3236" /><line stroke="rgb(10%,10%,16%)" x1="4322.7935" x2="0" y1="9252.6446" y2="0" /><line stroke="rgb(10%,10%,16%)" x1="21197.8291" x2="392.7701" y1="23568.8826" y2="31748.0315" /><line stroke="rgb(10%,10%,16%)" x1="20478.7457" x2="31748.0315" y1="31308.5599" y2="31748.0315" /><line stroke="rgb(10%,10%,16%)" x1="14344.0076" x2="31748.0315" y1="6760.9402" y2="21503.7646" /><line stroke="rgb(10%,10%,16%)" x1="24018.0389" x2="31748.0315" y1="27737.5316" y2="3094.783" /></svg>